%TF.GenerationSoftware,KiCad,Pcbnew,(6.0.4)*%
%TF.CreationDate,2023-03-08T20:25:47-05:00*%
%TF.ProjectId,Motor_module,4d6f746f-725f-46d6-9f64-756c652e6b69,rev?*%
%TF.SameCoordinates,Original*%
%TF.FileFunction,Soldermask,Top*%
%TF.FilePolarity,Negative*%
%FSLAX46Y46*%
G04 Gerber Fmt 4.6, Leading zero omitted, Abs format (unit mm)*
G04 Created by KiCad (PCBNEW (6.0.4)) date 2023-03-08 20:25:47*
%MOMM*%
%LPD*%
G01*
G04 APERTURE LIST*
G04 Aperture macros list*
%AMRoundRect*
0 Rectangle with rounded corners*
0 $1 Rounding radius*
0 $2 $3 $4 $5 $6 $7 $8 $9 X,Y pos of 4 corners*
0 Add a 4 corners polygon primitive as box body*
4,1,4,$2,$3,$4,$5,$6,$7,$8,$9,$2,$3,0*
0 Add four circle primitives for the rounded corners*
1,1,$1+$1,$2,$3*
1,1,$1+$1,$4,$5*
1,1,$1+$1,$6,$7*
1,1,$1+$1,$8,$9*
0 Add four rect primitives between the rounded corners*
20,1,$1+$1,$2,$3,$4,$5,0*
20,1,$1+$1,$4,$5,$6,$7,0*
20,1,$1+$1,$6,$7,$8,$9,0*
20,1,$1+$1,$8,$9,$2,$3,0*%
G04 Aperture macros list end*
%ADD10RoundRect,0.225000X-0.225000X-0.250000X0.225000X-0.250000X0.225000X0.250000X-0.225000X0.250000X0*%
%ADD11R,1.600000X1.600000*%
%ADD12C,1.600000*%
%ADD13C,1.500000*%
%ADD14RoundRect,0.225000X-0.250000X0.225000X-0.250000X-0.225000X0.250000X-0.225000X0.250000X0.225000X0*%
%ADD15R,1.700000X1.700000*%
%ADD16O,1.700000X1.700000*%
%ADD17RoundRect,0.200000X-0.200000X-0.275000X0.200000X-0.275000X0.200000X0.275000X-0.200000X0.275000X0*%
%ADD18RoundRect,0.250000X0.750000X-0.600000X0.750000X0.600000X-0.750000X0.600000X-0.750000X-0.600000X0*%
%ADD19O,2.000000X1.700000*%
%ADD20RoundRect,0.200000X0.200000X0.275000X-0.200000X0.275000X-0.200000X-0.275000X0.200000X-0.275000X0*%
%ADD21RoundRect,0.200000X-0.275000X0.200000X-0.275000X-0.200000X0.275000X-0.200000X0.275000X0.200000X0*%
%ADD22RoundRect,0.218750X0.218750X0.256250X-0.218750X0.256250X-0.218750X-0.256250X0.218750X-0.256250X0*%
%ADD23RoundRect,0.140000X-0.170000X0.140000X-0.170000X-0.140000X0.170000X-0.140000X0.170000X0.140000X0*%
%ADD24RoundRect,0.100000X0.100000X-0.637500X0.100000X0.637500X-0.100000X0.637500X-0.100000X-0.637500X0*%
%ADD25R,1.000000X0.900000*%
G04 APERTURE END LIST*
D10*
%TO.C,C3*%
X134215000Y-80550000D03*
X135765000Y-80550000D03*
%TD*%
D11*
%TO.C,C1*%
X155545113Y-80220000D03*
D12*
X153045113Y-80220000D03*
%TD*%
D13*
%TO.C,Y1*%
X144810000Y-80560000D03*
X139910000Y-80560000D03*
%TD*%
D14*
%TO.C,C6*%
X148900000Y-79005000D03*
X148900000Y-80555000D03*
%TD*%
D15*
%TO.C,J1*%
X159270000Y-68700000D03*
D16*
X159270000Y-66160000D03*
X159270000Y-63620000D03*
X159270000Y-61080000D03*
%TD*%
D17*
%TO.C,R4*%
X142985000Y-62950000D03*
X144635000Y-62950000D03*
%TD*%
D15*
%TO.C,J8*%
X153500000Y-73790000D03*
D16*
X153500000Y-71250000D03*
X153500000Y-68710000D03*
X153500000Y-66170000D03*
X153500000Y-63630000D03*
X153500000Y-61090000D03*
X153500000Y-58550000D03*
X153500000Y-56010000D03*
%TD*%
D18*
%TO.C,J3*%
X134500000Y-59420000D03*
D19*
X134500000Y-56920000D03*
%TD*%
D15*
%TO.C,J6*%
X134300000Y-83325000D03*
D16*
X134300000Y-85865000D03*
X134300000Y-88405000D03*
%TD*%
D20*
%TO.C,R6*%
X146725000Y-75670000D03*
X145075000Y-75670000D03*
%TD*%
%TO.C,R7*%
X159925000Y-55660000D03*
X158275000Y-55660000D03*
%TD*%
D21*
%TO.C,R2*%
X138240000Y-57485000D03*
X138240000Y-59135000D03*
%TD*%
D22*
%TO.C,D2*%
X159867500Y-79590000D03*
X158292500Y-79590000D03*
%TD*%
D14*
%TO.C,C5*%
X146760000Y-64785000D03*
X146760000Y-66335000D03*
%TD*%
D22*
%TO.C,D1*%
X159867500Y-57260000D03*
X158292500Y-57260000D03*
%TD*%
D23*
%TO.C,C8*%
X143510000Y-72040000D03*
X143510000Y-73000000D03*
%TD*%
D15*
%TO.C,J5*%
X159260000Y-75945000D03*
D16*
X159260000Y-73405000D03*
%TD*%
D17*
%TO.C,R3*%
X142985000Y-60410000D03*
X144635000Y-60410000D03*
%TD*%
%TO.C,R10*%
X158265000Y-84900000D03*
X159915000Y-84900000D03*
%TD*%
%TO.C,R1*%
X142985000Y-57870000D03*
X144635000Y-57870000D03*
%TD*%
D15*
%TO.C,J7*%
X140800000Y-56007000D03*
D16*
X140800000Y-58547000D03*
X140800000Y-61087000D03*
X140800000Y-63627000D03*
X140800000Y-66167000D03*
X140800000Y-68707000D03*
X140800000Y-71247000D03*
X140800000Y-73787000D03*
%TD*%
D18*
%TO.C,J4*%
X134500000Y-67890000D03*
D19*
X134500000Y-65390000D03*
%TD*%
D24*
%TO.C,U1*%
X144945000Y-73912500D03*
X145595000Y-73912500D03*
X146245000Y-73912500D03*
X146895000Y-73912500D03*
X147545000Y-73912500D03*
X148195000Y-73912500D03*
X148845000Y-73912500D03*
X149495000Y-73912500D03*
X150145000Y-73912500D03*
X150795000Y-73912500D03*
X150795000Y-68187500D03*
X150145000Y-68187500D03*
X149495000Y-68187500D03*
X148845000Y-68187500D03*
X148195000Y-68187500D03*
X147545000Y-68187500D03*
X146895000Y-68187500D03*
X146245000Y-68187500D03*
X145595000Y-68187500D03*
X144945000Y-68187500D03*
%TD*%
D15*
%TO.C,J2*%
X155555000Y-84765000D03*
D16*
X153015000Y-84765000D03*
X150475000Y-84765000D03*
X147935000Y-84765000D03*
X145395000Y-84765000D03*
X142855000Y-84765000D03*
X140315000Y-84765000D03*
X137775000Y-84765000D03*
%TD*%
D25*
%TO.C,SW1*%
X134260000Y-77380000D03*
X134260000Y-73280000D03*
X135860000Y-73280000D03*
X135860000Y-77380000D03*
%TD*%
D17*
%TO.C,R9*%
X158275000Y-81210000D03*
X159925000Y-81210000D03*
%TD*%
D21*
%TO.C,R8*%
X138240000Y-70885000D03*
X138240000Y-72535000D03*
%TD*%
D22*
%TO.C,D3*%
X159867500Y-83150000D03*
X158292500Y-83150000D03*
%TD*%
M02*
