M48
; DRILL file {KiCad (6.0.4)} date Wed Mar  8 20:25:48 2023
; FORMAT={-:-/ absolute / inch / decimal}
; #@! TF.CreationDate,2023-03-08T20:25:48-05:00
; #@! TF.GenerationSoftware,Kicad,Pcbnew,(6.0.4)
; #@! TF.FileFunction,Plated,1,2,PTH
FMAT,2
INCH
; #@! TA.AperFunction,Plated,PTH,ViaDrill
T1C0.0150
; #@! TA.AperFunction,Plated,PTH,ComponentDrill
T2C0.0315
; #@! TA.AperFunction,Plated,PTH,ComponentDrill
T3C0.0394
%
G90
G05
T1
X5.2756Y-3.6417
X5.2858Y-2.9669
X5.2894Y-2.8201
X5.3063Y-3.1106
X5.374Y-3.5236
X5.374Y-3.6417
X5.413Y-2.9791
X5.4421Y-2.7209
X5.4421Y-2.7906
X5.4421Y-2.8563
X5.4429Y-2.4213
X5.4429Y-2.5
X5.4429Y-2.5787
X5.4492Y-3.0331
X5.4906Y-3.2374
X5.4921Y-3.0937
X5.4921Y-3.5236
X5.4921Y-3.6417
X5.6012Y-2.5555
X5.6102Y-3.5236
X5.6102Y-3.6417
X5.6339Y-2.4252
X5.6339Y-3.1539
X5.6339Y-3.2291
X5.6417Y-2.5276
X5.6504Y-2.824
X5.6575Y-2.1535
X5.6902Y-2.5433
X5.6976Y-2.7917
X5.7283Y-3.5236
X5.7283Y-3.6417
X5.7323Y-2.315
X5.7457Y-2.7996
X5.7591Y-2.5043
X5.7717Y-2.2244
X5.7941Y-2.7878
X5.8268Y-3.5236
X5.8268Y-3.6417
X5.8378Y-2.5587
X5.8669Y-2.3319
X5.8697Y-2.398
X5.8701Y-2.2441
X5.8724Y-3.2512
X5.878Y-2.1614
X5.9083Y-2.7874
X5.9106Y-2.9969
X5.9291Y-2.4134
X5.9291Y-2.4882
X5.9606Y-2.1614
X5.9646Y-3.4252
X5.9646Y-3.5236
X5.9646Y-3.6417
X5.9656Y-3.0898
X5.9685Y-2.2441
X5.9685Y-2.3031
X5.9925Y-3.25
X6.0354Y-3.0591
X6.0827Y-3.4252
X6.0827Y-3.5236
X6.0827Y-3.6417
X6.1811Y-2.1654
X6.2008Y-3.4252
X6.2008Y-3.5236
X6.2008Y-3.6417
X6.2315Y-2.1913
X6.2795Y-2.3228
X6.2795Y-2.7953
X6.2795Y-3.0709
X6.2957Y-3.3433
X6.2965Y-3.1976
X6.2992Y-3.4252
X6.2992Y-3.5236
X6.2992Y-3.6417
T2
X5.5083Y-3.1717
X5.7012Y-3.1717
X6.0254Y-3.1583
X6.1238Y-3.1583
T3
X5.2874Y-3.2805
X5.2874Y-3.3805
X5.2874Y-3.4805
X5.2953Y-2.2409
X5.2953Y-2.3394
X5.2953Y-2.5744
X5.2953Y-2.6728
X5.4242Y-3.3372
X5.5242Y-3.3372
X5.5433Y-2.205
X5.5433Y-2.305
X5.5433Y-2.405
X5.5433Y-2.505
X5.5433Y-2.605
X5.5433Y-2.705
X5.5433Y-2.805
X5.5433Y-2.905
X5.6242Y-3.3372
X5.7242Y-3.3372
X5.8242Y-3.3372
X5.9242Y-3.3372
X6.0242Y-3.3372
X6.0433Y-2.2051
X6.0433Y-2.3051
X6.0433Y-2.4051
X6.0433Y-2.5051
X6.0433Y-2.6051
X6.0433Y-2.7051
X6.0433Y-2.8051
X6.0433Y-2.9051
X6.1242Y-3.3372
X6.2701Y-2.89
X6.2701Y-2.99
X6.2705Y-2.4047
X6.2705Y-2.5047
X6.2705Y-2.6047
X6.2705Y-2.7047
T0
M30
