%TF.GenerationSoftware,KiCad,Pcbnew,(6.0.4)*%
%TF.CreationDate,2023-03-08T20:25:47-05:00*%
%TF.ProjectId,Motor_module,4d6f746f-725f-46d6-9f64-756c652e6b69,rev?*%
%TF.SameCoordinates,Original*%
%TF.FileFunction,Legend,Bot*%
%TF.FilePolarity,Positive*%
%FSLAX46Y46*%
G04 Gerber Fmt 4.6, Leading zero omitted, Abs format (unit mm)*
G04 Created by KiCad (PCBNEW (6.0.4)) date 2023-03-08 20:25:47*
%MOMM*%
%LPD*%
G01*
G04 APERTURE LIST*
%ADD10C,0.150000*%
%ADD11C,0.300000*%
%ADD12C,0.180000*%
%ADD13C,0.120000*%
G04 APERTURE END LIST*
D10*
X136510000Y-83280000D02*
X144110000Y-83280000D01*
X144110000Y-83280000D02*
X144110000Y-86080000D01*
X144110000Y-86080000D02*
X136510000Y-86080000D01*
X136510000Y-86080000D02*
X136510000Y-83280000D01*
X151820000Y-83480000D02*
X156720000Y-83480000D01*
X156720000Y-83480000D02*
X156720000Y-86080000D01*
X156720000Y-86080000D02*
X151820000Y-86080000D01*
X151820000Y-86080000D02*
X151820000Y-83480000D01*
X152568095Y-87102380D02*
X151949047Y-87102380D01*
X152282380Y-87483333D01*
X152139523Y-87483333D01*
X152044285Y-87530952D01*
X151996666Y-87578571D01*
X151949047Y-87673809D01*
X151949047Y-87911904D01*
X151996666Y-88007142D01*
X152044285Y-88054761D01*
X152139523Y-88102380D01*
X152425238Y-88102380D01*
X152520476Y-88054761D01*
X152568095Y-88007142D01*
X151663333Y-87102380D02*
X151330000Y-88102380D01*
X150996666Y-87102380D01*
X150758571Y-87102380D02*
X150139523Y-87102380D01*
X150472857Y-87483333D01*
X150330000Y-87483333D01*
X150234761Y-87530952D01*
X150187142Y-87578571D01*
X150139523Y-87673809D01*
X150139523Y-87911904D01*
X150187142Y-88007142D01*
X150234761Y-88054761D01*
X150330000Y-88102380D01*
X150615714Y-88102380D01*
X150710952Y-88054761D01*
X150758571Y-88007142D01*
X145020476Y-88102380D02*
X145353809Y-87626190D01*
X145591904Y-88102380D02*
X145591904Y-87102380D01*
X145210952Y-87102380D01*
X145115714Y-87150000D01*
X145068095Y-87197619D01*
X145020476Y-87292857D01*
X145020476Y-87435714D01*
X145068095Y-87530952D01*
X145115714Y-87578571D01*
X145210952Y-87626190D01*
X145591904Y-87626190D01*
X144734761Y-87102380D02*
X144163333Y-87102380D01*
X144449047Y-88102380D02*
X144449047Y-87102380D01*
X143830000Y-87721428D02*
X143068095Y-87721428D01*
X148420476Y-88102380D02*
X148753809Y-87626190D01*
X148991904Y-88102380D02*
X148991904Y-87102380D01*
X148610952Y-87102380D01*
X148515714Y-87150000D01*
X148468095Y-87197619D01*
X148420476Y-87292857D01*
X148420476Y-87435714D01*
X148468095Y-87530952D01*
X148515714Y-87578571D01*
X148610952Y-87626190D01*
X148991904Y-87626190D01*
X148134761Y-87102380D02*
X147563333Y-87102380D01*
X147849047Y-88102380D02*
X147849047Y-87102380D01*
X147230000Y-87721428D02*
X146468095Y-87721428D01*
X146849047Y-88102380D02*
X146849047Y-87340476D01*
X156729523Y-81932380D02*
X156396190Y-82932380D01*
X156062857Y-81932380D01*
X155729523Y-82932380D02*
X155729523Y-81932380D01*
X155396190Y-82646666D01*
X155062857Y-81932380D01*
X155062857Y-82932380D01*
X154396190Y-81932380D02*
X154205714Y-81932380D01*
X154110476Y-81980000D01*
X154015238Y-82075238D01*
X153967619Y-82265714D01*
X153967619Y-82599047D01*
X154015238Y-82789523D01*
X154110476Y-82884761D01*
X154205714Y-82932380D01*
X154396190Y-82932380D01*
X154491428Y-82884761D01*
X154586666Y-82789523D01*
X154634285Y-82599047D01*
X154634285Y-82265714D01*
X154586666Y-82075238D01*
X154491428Y-81980000D01*
X154396190Y-81932380D01*
X153681904Y-81932380D02*
X153110476Y-81932380D01*
X153396190Y-82932380D02*
X153396190Y-81932380D01*
D11*
X157813324Y-92457149D02*
X157894276Y-92538102D01*
X158137133Y-92619054D01*
X158299038Y-92619054D01*
X158541895Y-92538102D01*
X158703800Y-92376197D01*
X158784752Y-92214292D01*
X158865705Y-91890483D01*
X158865705Y-91647626D01*
X158784752Y-91323816D01*
X158703800Y-91161911D01*
X158541895Y-91000007D01*
X158299038Y-90919054D01*
X158137133Y-90919054D01*
X157894276Y-91000007D01*
X157813324Y-91080959D01*
X156841895Y-92619054D02*
X157003800Y-92538102D01*
X157084752Y-92457149D01*
X157165705Y-92295245D01*
X157165705Y-91809530D01*
X157084752Y-91647626D01*
X157003800Y-91566673D01*
X156841895Y-91485721D01*
X156599038Y-91485721D01*
X156437133Y-91566673D01*
X156356181Y-91647626D01*
X156275229Y-91809530D01*
X156275229Y-92295245D01*
X156356181Y-92457149D01*
X156437133Y-92538102D01*
X156599038Y-92619054D01*
X156841895Y-92619054D01*
X155546657Y-92619054D02*
X155546657Y-91485721D01*
X155546657Y-91809530D02*
X155465705Y-91647626D01*
X155384752Y-91566673D01*
X155222848Y-91485721D01*
X155060943Y-91485721D01*
X153765705Y-92619054D02*
X153765705Y-91728578D01*
X153846657Y-91566673D01*
X154008562Y-91485721D01*
X154332371Y-91485721D01*
X154494276Y-91566673D01*
X153765705Y-92538102D02*
X153927610Y-92619054D01*
X154332371Y-92619054D01*
X154494276Y-92538102D01*
X154575229Y-92376197D01*
X154575229Y-92214292D01*
X154494276Y-92052387D01*
X154332371Y-91971435D01*
X153927610Y-91971435D01*
X153765705Y-91890483D01*
X152713324Y-92619054D02*
X152875229Y-92538102D01*
X152956181Y-92376197D01*
X152956181Y-90919054D01*
D12*
X150937151Y-92745238D02*
X150780009Y-92797619D01*
X150518104Y-92797619D01*
X150413342Y-92745238D01*
X150360961Y-92692857D01*
X150308580Y-92588095D01*
X150308580Y-92483333D01*
X150360961Y-92378571D01*
X150413342Y-92326190D01*
X150518104Y-92273809D01*
X150727628Y-92221428D01*
X150832389Y-92169047D01*
X150884770Y-92116666D01*
X150937151Y-92011904D01*
X150937151Y-91907142D01*
X150884770Y-91802380D01*
X150832389Y-91750000D01*
X150727628Y-91697619D01*
X150465723Y-91697619D01*
X150308580Y-91750000D01*
X149994294Y-92064285D02*
X149575247Y-92064285D01*
X149837151Y-91697619D02*
X149837151Y-92640476D01*
X149784770Y-92745238D01*
X149680009Y-92797619D01*
X149575247Y-92797619D01*
X148789532Y-92745238D02*
X148894294Y-92797619D01*
X149103818Y-92797619D01*
X149208580Y-92745238D01*
X149260961Y-92640476D01*
X149260961Y-92221428D01*
X149208580Y-92116666D01*
X149103818Y-92064285D01*
X148894294Y-92064285D01*
X148789532Y-92116666D01*
X148737151Y-92221428D01*
X148737151Y-92326190D01*
X149260961Y-92430952D01*
X148265723Y-92064285D02*
X148265723Y-93164285D01*
X148265723Y-92116666D02*
X148160961Y-92064285D01*
X147951437Y-92064285D01*
X147846675Y-92116666D01*
X147794294Y-92169047D01*
X147741913Y-92273809D01*
X147741913Y-92588095D01*
X147794294Y-92692857D01*
X147846675Y-92745238D01*
X147951437Y-92797619D01*
X148160961Y-92797619D01*
X148265723Y-92745238D01*
X147270485Y-92064285D02*
X147270485Y-93164285D01*
X147270485Y-92116666D02*
X147165723Y-92064285D01*
X146956199Y-92064285D01*
X146851437Y-92116666D01*
X146799056Y-92169047D01*
X146746675Y-92273809D01*
X146746675Y-92588095D01*
X146799056Y-92692857D01*
X146851437Y-92745238D01*
X146956199Y-92797619D01*
X147165723Y-92797619D01*
X147270485Y-92745238D01*
X145856199Y-92745238D02*
X145960961Y-92797619D01*
X146170485Y-92797619D01*
X146275247Y-92745238D01*
X146327628Y-92640476D01*
X146327628Y-92221428D01*
X146275247Y-92116666D01*
X146170485Y-92064285D01*
X145960961Y-92064285D01*
X145856199Y-92116666D01*
X145803818Y-92221428D01*
X145803818Y-92326190D01*
X146327628Y-92430952D01*
X145332389Y-92797619D02*
X145332389Y-92064285D01*
X145332389Y-92273809D02*
X145280009Y-92169047D01*
X145227628Y-92116666D01*
X145122866Y-92064285D01*
X145018104Y-92064285D01*
X143970485Y-91697619D02*
X143603818Y-92797619D01*
X143237151Y-91697619D01*
X142294294Y-92797619D02*
X142922866Y-92797619D01*
X142608580Y-92797619D02*
X142608580Y-91697619D01*
X142713342Y-91854761D01*
X142818104Y-91959523D01*
X142922866Y-92011904D01*
X141822866Y-92692857D02*
X141770485Y-92745238D01*
X141822866Y-92797619D01*
X141875247Y-92745238D01*
X141822866Y-92692857D01*
X141822866Y-92797619D01*
X141089532Y-91697619D02*
X140984770Y-91697619D01*
X140880009Y-91750000D01*
X140827628Y-91802380D01*
X140775247Y-91907142D01*
X140722866Y-92116666D01*
X140722866Y-92378571D01*
X140775247Y-92588095D01*
X140827628Y-92692857D01*
X140880009Y-92745238D01*
X140984770Y-92797619D01*
X141089532Y-92797619D01*
X141194294Y-92745238D01*
X141246675Y-92692857D01*
X141299056Y-92588095D01*
X141351437Y-92378571D01*
X141351437Y-92116666D01*
X141299056Y-91907142D01*
X141246675Y-91802380D01*
X141194294Y-91750000D01*
X141089532Y-91697619D01*
D10*
X140891904Y-87150000D02*
X140987142Y-87102380D01*
X141130000Y-87102380D01*
X141272857Y-87150000D01*
X141368095Y-87245238D01*
X141415714Y-87340476D01*
X141463333Y-87530952D01*
X141463333Y-87673809D01*
X141415714Y-87864285D01*
X141368095Y-87959523D01*
X141272857Y-88054761D01*
X141130000Y-88102380D01*
X141034761Y-88102380D01*
X140891904Y-88054761D01*
X140844285Y-88007142D01*
X140844285Y-87673809D01*
X141034761Y-87673809D01*
X140415714Y-88102380D02*
X140415714Y-87102380D01*
X139844285Y-88102380D01*
X139844285Y-87102380D01*
X139368095Y-88102380D02*
X139368095Y-87102380D01*
X139130000Y-87102380D01*
X138987142Y-87150000D01*
X138891904Y-87245238D01*
X138844285Y-87340476D01*
X138796666Y-87530952D01*
X138796666Y-87673809D01*
X138844285Y-87864285D01*
X138891904Y-87959523D01*
X138987142Y-88054761D01*
X139130000Y-88102380D01*
X139368095Y-88102380D01*
D13*
%TO.C,R11*%
X137297258Y-87482500D02*
X136822742Y-87482500D01*
X137297258Y-86437500D02*
X136822742Y-86437500D01*
%TO.C,R5*%
X146982742Y-74977500D02*
X147457258Y-74977500D01*
X146982742Y-76022500D02*
X147457258Y-76022500D01*
%TO.C,C2*%
X143589420Y-76020000D02*
X143870580Y-76020000D01*
X143589420Y-75000000D02*
X143870580Y-75000000D01*
%TO.C,C7*%
X150707836Y-76490000D02*
X150492164Y-76490000D01*
X150707836Y-75770000D02*
X150492164Y-75770000D01*
%TO.C,C4*%
X150609420Y-77970000D02*
X150890580Y-77970000D01*
X150609420Y-78990000D02*
X150890580Y-78990000D01*
D10*
%TO.C,U3*%
X144405000Y-68465000D02*
X144405000Y-72615000D01*
X149555000Y-72615000D02*
X149410000Y-72615000D01*
X149555000Y-68465000D02*
X149555000Y-72615000D01*
X144405000Y-68465000D02*
X144455000Y-68465000D01*
X149555000Y-68465000D02*
X149410000Y-68465000D01*
X144455000Y-68465000D02*
X144455000Y-67065000D01*
X144405000Y-72615000D02*
X144550000Y-72615000D01*
%TD*%
M02*
