%TF.GenerationSoftware,KiCad,Pcbnew,(6.0.4)*%
%TF.CreationDate,2023-03-08T20:25:47-05:00*%
%TF.ProjectId,Motor_module,4d6f746f-725f-46d6-9f64-756c652e6b69,rev?*%
%TF.SameCoordinates,Original*%
%TF.FileFunction,Soldermask,Bot*%
%TF.FilePolarity,Negative*%
%FSLAX46Y46*%
G04 Gerber Fmt 4.6, Leading zero omitted, Abs format (unit mm)*
G04 Created by KiCad (PCBNEW (6.0.4)) date 2023-03-08 20:25:47*
%MOMM*%
%LPD*%
G01*
G04 APERTURE LIST*
G04 Aperture macros list*
%AMRoundRect*
0 Rectangle with rounded corners*
0 $1 Rounding radius*
0 $2 $3 $4 $5 $6 $7 $8 $9 X,Y pos of 4 corners*
0 Add a 4 corners polygon primitive as box body*
4,1,4,$2,$3,$4,$5,$6,$7,$8,$9,$2,$3,0*
0 Add four circle primitives for the rounded corners*
1,1,$1+$1,$2,$3*
1,1,$1+$1,$4,$5*
1,1,$1+$1,$6,$7*
1,1,$1+$1,$8,$9*
0 Add four rect primitives between the rounded corners*
20,1,$1+$1,$2,$3,$4,$5,0*
20,1,$1+$1,$4,$5,$6,$7,0*
20,1,$1+$1,$6,$7,$8,$9,0*
20,1,$1+$1,$8,$9,$2,$3,0*%
G04 Aperture macros list end*
%ADD10C,0.150000*%
%ADD11R,1.600000X1.600000*%
%ADD12C,1.600000*%
%ADD13C,1.500000*%
%ADD14R,1.700000X1.700000*%
%ADD15O,1.700000X1.700000*%
%ADD16RoundRect,0.250000X0.750000X-0.600000X0.750000X0.600000X-0.750000X0.600000X-0.750000X-0.600000X0*%
%ADD17O,2.000000X1.700000*%
%ADD18RoundRect,0.200000X0.200000X0.275000X-0.200000X0.275000X-0.200000X-0.275000X0.200000X-0.275000X0*%
%ADD19RoundRect,0.200000X-0.200000X-0.275000X0.200000X-0.275000X0.200000X0.275000X-0.200000X0.275000X0*%
%ADD20RoundRect,0.225000X-0.225000X-0.250000X0.225000X-0.250000X0.225000X0.250000X-0.225000X0.250000X0*%
%ADD21RoundRect,0.140000X0.140000X0.170000X-0.140000X0.170000X-0.140000X-0.170000X0.140000X-0.170000X0*%
%ADD22R,0.600000X2.000000*%
G04 APERTURE END LIST*
D10*
X158750000Y-83750000D02*
X160500000Y-83750000D01*
X160500000Y-83750000D02*
X160500000Y-85750000D01*
X160500000Y-85750000D02*
X158750000Y-85750000D01*
X158750000Y-85750000D02*
X158750000Y-83750000D01*
G36*
X158750000Y-83750000D02*
G01*
X160500000Y-83750000D01*
X160500000Y-85750000D01*
X158750000Y-85750000D01*
X158750000Y-83750000D01*
G37*
D11*
%TO.C,C1*%
X155545113Y-80220000D03*
D12*
X153045113Y-80220000D03*
%TD*%
D13*
%TO.C,Y1*%
X144810000Y-80560000D03*
X139910000Y-80560000D03*
%TD*%
D14*
%TO.C,J1*%
X159270000Y-68700000D03*
D15*
X159270000Y-66160000D03*
X159270000Y-63620000D03*
X159270000Y-61080000D03*
%TD*%
D14*
%TO.C,J8*%
X153500000Y-73790000D03*
D15*
X153500000Y-71250000D03*
X153500000Y-68710000D03*
X153500000Y-66170000D03*
X153500000Y-63630000D03*
X153500000Y-61090000D03*
X153500000Y-58550000D03*
X153500000Y-56010000D03*
%TD*%
D16*
%TO.C,J3*%
X134500000Y-59420000D03*
D17*
X134500000Y-56920000D03*
%TD*%
D14*
%TO.C,J6*%
X134300000Y-83325000D03*
D15*
X134300000Y-85865000D03*
X134300000Y-88405000D03*
%TD*%
D14*
%TO.C,J5*%
X159260000Y-75945000D03*
D15*
X159260000Y-73405000D03*
%TD*%
D14*
%TO.C,J7*%
X140800000Y-56007000D03*
D15*
X140800000Y-58547000D03*
X140800000Y-61087000D03*
X140800000Y-63627000D03*
X140800000Y-66167000D03*
X140800000Y-68707000D03*
X140800000Y-71247000D03*
X140800000Y-73787000D03*
%TD*%
D16*
%TO.C,J4*%
X134500000Y-67890000D03*
D17*
X134500000Y-65390000D03*
%TD*%
D14*
%TO.C,J2*%
X155555000Y-84765000D03*
D15*
X153015000Y-84765000D03*
X150475000Y-84765000D03*
X147935000Y-84765000D03*
X145395000Y-84765000D03*
X142855000Y-84765000D03*
X140315000Y-84765000D03*
X137775000Y-84765000D03*
%TD*%
D18*
%TO.C,R11*%
X137885000Y-86960000D03*
X136235000Y-86960000D03*
%TD*%
D19*
%TO.C,R5*%
X146395000Y-75500000D03*
X148045000Y-75500000D03*
%TD*%
D20*
%TO.C,C2*%
X142955000Y-75510000D03*
X144505000Y-75510000D03*
%TD*%
D21*
%TO.C,C7*%
X151080000Y-76130000D03*
X150120000Y-76130000D03*
%TD*%
D20*
%TO.C,C4*%
X149975000Y-78480000D03*
X151525000Y-78480000D03*
%TD*%
D22*
%TO.C,U3*%
X145075000Y-67815000D03*
X146345000Y-67815000D03*
X147615000Y-67815000D03*
X148885000Y-67815000D03*
X148885000Y-73265000D03*
X147615000Y-73265000D03*
X146345000Y-73265000D03*
X145075000Y-73265000D03*
%TD*%
M02*
